<svg xmlns="http://www.w3.org/2000/svg" width="370.328" height="7.515" viewBox="0 0 370.328 7.515"><defs><clipPath id="a"><path data-name="Clip 2" d="M0 0h370.328v7.515H0z" fill="none"/></clipPath></defs><g data-name="2" clip-path="url(#a)"><path data-name="Fill 1" d="M144.957 2.845c23.75-.1 47.5.215 71.236 1.127 23.6.907 47.173 2.325 70.776 3.069 26.684.841 53.411.751 80.007-1.807.882-.085 3.173-.692 3.34-1.793.182-1.2-1.749-1-2.42-.935-47.037 4.524-94.324.94-141.393-1.068C179.037-.586 131.527-.25 84.045 1.074c-26.67.743-41.331 1.773-67.991 2.8-1.196.049-3.125.413-3.854 1.496s.619 1.4 1.48 1.364c47.744-1.845 83.497-3.689 131.277-3.889z" fill="#ffca00"/></g></svg>