<svg xmlns="http://www.w3.org/2000/svg" viewBox="0 0 327.4 253"><path d="M34 248.9c-9.9-2.1-15.5-11.8-19-20.5-21.8-54.9-2.9-117.6 45.7-151.2 18-12.5 41.8-22.9 63.7-15.4 9.9 3.4 18.6 10.5 22.4 20.4 3.4 9 3.1 20.4-3.9 27.7-5.9 6.2-15.5 8.5-22.3 2.3-8-7.3-8.9-20.5-7.9-30.5 2.2-21.9 15.5-41.8 32.4-55.2 16.5-13 36.5-20.7 57.4-22.1 23.2-1.6 46.8 4.3 67.2 15.3 18.9 10.2 36.5 25 46.1 44.5 2.3 4.6 4.1 9.5 5.3 14.4.7 2.7 6.8 1 6.1-1.6-5.5-22-21.4-40-39.9-52.8C266.9 10.1 242.4 1.4 217.6.1c-23.4-1.2-46.7 4.7-66.7 17-19.4 12.1-35.3 30.7-41.8 52.8-3.3 11.3-4.3 24.7.2 35.8 2 4.9 5.2 9.5 9.9 12 4.7 2.4 10 3 15.1 1.7 10.5-2.5 18.5-10.9 20.4-21.6 1.9-10.7-2.1-22.2-9.8-29.8-8.2-8.1-19.7-12.4-31.1-13-13.5-.7-26.9 3.2-39 9-20.4 9.8-38 24.7-51 43.2-14.1 20-22.3 43.6-23.6 68-.7 12.8.5 25.7 3.5 38.2 1.4 6.1 3.4 12 5.7 17.8 2 5 4.7 9.7 8.2 13.8 3.3 3.9 7.8 6.6 12.8 7.8 1.5.4 3.2 0 4.3-1.2.7-.6.7-1.6.1-2.3-.2-.1-.5-.3-.8-.4"/></svg>