<svg xmlns="http://www.w3.org/2000/svg" viewBox="0 0 274.4 176.2"><path d="M0 148.1c-.3 9.6 7 17.5 15.3 21.4 9.4 4.5 20.3 5.7 30.6 6.4 22 1.3 44-2.2 64.5-10.4 16-6.3 35.2-16.9 39.1-35.3 2.1-10-1.2-20.3-6.7-28.7-4.9-7.4-11.9-13.7-20.4-16.5-4.4-1.5-9-2-13.6-1.5-5.3.6-10.9 2.3-15.2 5.6-7.9 6.2-8.3 17.9-5.5 26.7 6.2 19.7 27.2 30.7 45.6 36.8 19.4 6.8 40.5 7.1 60 .7 17.5-5.5 33.3-15.4 46-28.7 13.2-13.9 22.8-30.8 28.2-49.2 5.9-19.4 7.6-40 6.4-60.2-.3-4.9-.8-9.8-1.5-14.7-.1-1-3.7-.1-4.2 0-.7.2-3.8.9-3.6 2.1 2.7 19.2 2.4 38.6-.8 57.7-3.3 18.5-10 36.5-20.8 52-9.6 13.9-22.4 25.4-37.4 33.4-1.7.9-3.3 1.7-5.1 2.5-2 .9-3.5 1.5-5.3 2.2-.9.3-1.9.7-2.8 1-.5.2-1 .3-1.5.5.2-.1.7-.2-.1 0l-.9.3c-.9.3-1.9.5-2.9.8-.3.1-.6.1-.9.2l-1.5.3c-3.8.8-7.7 1.3-11.5 1.5-4.8.2-9.6 0-14.3-.7-10.1-1.4-20-4.3-29.3-8.6-8.6-3.9-17.1-8.7-23.8-15.5-6.5-6.6-11.2-15.5-11.6-24.9-.2-4.7.7-9.6 3.3-13.6 1.1-1.6 2.5-3 4.1-4 .4-.2.7-.4.9-.5.1 0 .8-.3.4-.2l.3-.1c.8-.3.2-.1.1 0 .2-.1.5-.1.8-.2-.9.2 1-.2.8-.1.7-.1 1.5-.1 2.2-.1 1 0 2 .1 3.1.2 2 .3 4 .8 5.9 1.5 4 1.5 7.6 3.7 10.9 6.5 6.9 5.9 11.8 13.8 14.1 22.6 2.4 8.8 1 18.1-4 25.7-4.5 6.9-11.3 12-18.4 16-8.1 4.4-16.6 7.8-25.5 10.1-4.5 1.2-9.1 2.2-13.7 2.9-4.7.7-9.4 1.2-14.2 1.3-9.9.4-19.8-.3-29.6-2.2-9.1-1.8-18.6-5.2-24.1-13.2-2.4-3.4-3.7-7.6-3.7-11.8-.3-1-8.1-.1-8.2 2"/></svg>