<svg xmlns="http://www.w3.org/2000/svg" width="22" height="22" viewBox="0 0 22 22"><g data-name="Group 3"><path data-name="Fill 1" d="M22 11A11 11 0 109.281 21.866V14.18H6.488V11h2.793V8.577c0-2.757 1.642-4.28 4.155-4.28a16.916 16.916 0 012.462.215v2.707h-1.387a1.59 1.59 0 00-1.793 1.718V11h3.052l-.488 3.18h-2.563v7.687A11 11 0 0022 11" fill="#1877f2"/><path data-name="Fill 4" d="M15.282 14.18l.487-3.183h-3.051v-2.06a1.59 1.59 0 011.793-1.718h1.387V4.512a16.916 16.916 0 00-2.462-.215c-2.513 0-4.155 1.523-4.155 4.28v2.42H6.488v3.18h2.793v7.687a11.12 11.12 0 003.438 0V14.18h2.563" fill="#fffffe"/></g></svg>