<svg version="1.1" id="Слой_1" xmlns="http://www.w3.org/2000/svg" x="0" y="0" viewBox="0 0 292.6 332.8" xml:space="preserve"><style>.st0{fill:#ffca00}</style><path id="Fill_1-3" class="st0" d="M230.9 88.2s37.8-37.7 44.6-23.3c6.2 13.1-3.8 25.2-5.6 27.2-.2.2-.4.5-.6.7-1.8 2.3-16.2 19.3-25.5 36.3"/><path id="Fill_3" d="M232.6 89.3c3.5-3.5 7.1-6.7 10.8-9.9 1.6-1.4 3.3-2.8 5-4.1.4-.3.8-.6 1.2-1 .2-.2.5-.4.7-.5.7-.5-.5.4.1-.1.9-.7 1.8-1.4 2.8-2 1.7-1.3 3.5-2.5 5.4-3.6.4-.3.9-.5 1.3-.8l.5-.3c.1-.1.3-.1.4-.2.5-.3-.7.4-.2.1.8-.4 1.7-.9 2.5-1.2.4-.2.8-.4 1.2-.5.2-.1.4-.1.6-.2l.3-.1-.3.1c.8-.2 1.5-.5 2.3-.6.1 0 .8-.1.2 0-.6.1.1 0 .2 0 .3 0 .7-.1 1-.1h.5c.3 0-.7-.1-.1 0 .3 0 .6.1.9.2.1 0 .3.1.4.1.2 0-.5-.3 0 0 .3.1.5.3.8.4.2.2.4.3.6.5-.5-.4-.1-.1 0 .1.1.1.2.2.3.4 1.4 2.2 2.2 4.6 2.3 7.2.3 2.7 0 5.4-.8 8-.2.6-.4 1.2-.6 1.7-.2.6.1-.3 0 .1-.1.1-.1.3-.2.5-.1.3-.2.6-.4.9-.5 1.1-1 2.1-1.6 3.1-.3.4-.5.9-.8 1.3-.4.6.3-.4-.1.1-.1.2-.3.4-.4.6-.4.6-.9 1.2-1.3 1.7-.7.9-1.5 1.8-2.3 2.8-8.1 9.7-15.4 20-22.1 30.7-1 1.7-2 3.3-2.9 5-.4.6-.3 1.5.3 2 .3.2.7.3 1.1.2 1.6-.2 3-1.1 3.8-2.5 3.8-6.8 8.1-13.4 12.7-19.7 3.4-4.6 6.8-9.2 10.5-13.6 1.9-2.2 3.7-4.5 5.4-6.9 3.1-4.5 4.9-9.7 5.3-15.1.1-3.3-.4-6.5-1.7-9.5-.5-1.5-1.5-2.8-2.9-3.7-2.8-1.8-6.6-1.1-9.6-.1-4.1 1.5-8.1 3.5-11.7 6-4 2.7-7.8 5.5-11.5 8.6-4.7 3.8-9.2 7.9-13.5 12.1l-.2.2c-.7.7-1.9 2.3-.7 3.1 1.6.3 3.6-.7 4.5-1.5"/><path id="Fill_5" class="st0" d="M226.2 63.7s38.8-36.6 45.2-22.1c5.8 13.2-4.5 25.1-6.3 27.1-.2.2-.4.4-.6.7-1.9 2.2-8.5 4.7-18.3 21.4"/><g id="Group_9" transform="translate(278.64 33.996)"><path id="Fill_7" d="M-50.7 30.9c3.4-3.2 6.9-6.2 10.4-9.1.8-.6 1.5-1.2 2.3-1.9l.6-.5c.6-.5-.4.3 0 0s.9-.7 1.3-1c1.7-1.3 3.4-2.5 5.1-3.7 1.7-1.2 3.5-2.4 5.3-3.5.9-.5 1.7-1 2.6-1.5l.3-.2c.5-.3-.7.3-.3.1l.6-.3c.4-.2.9-.5 1.4-.7.8-.4 1.6-.7 2.4-1 .4-.1.8-.3 1.1-.4.6-.2-.8.2-.1 0 .2-.1.4-.1.6-.2.4-.1.7-.2 1.1-.3.4 0 .8-.1 1.1-.2-.2.1-.7.1-.2 0h1.5c.6 0-.4-.1-.1 0 .1 0 .3 0 .4.1.3.1.6.1.8.2.4.1 0 0-.1-.1.1.1.2.1.4.2.3.2.5.3.7.5.1 0 .3.2.3.2s-.4-.5-.2-.2c0 .1.1.1.2.2.2.2.4.5.5.7.5.9.9 1.9 1.2 2.9.4 1.4.7 2.9.8 4.4.1.5.1 1.1 0 1.6 0 .6-.1 1.3-.2 1.9-.1.6-.2 1.3-.3 1.9-.1.3-.2.7-.2 1 0 .1-.1.3-.1.4 0 .1-.2.7 0 .2-.4 1.2-.8 2.3-1.4 3.4-.2.5-.5 1-.7 1.5l-.3.6c-.1.1-.1.2-.2.3-.3.5.3-.5 0 0-.5.8-1 1.6-1.6 2.4-.4.6-.9 1.2-1.4 1.8-.2.2-.3.4-.5.6-.4.5.4-.5.3-.3l-.2.2c-.4.4-.8.9-1.2 1.3-.2.3.7-.7.3-.4-.2.1-.3.3-.5.4-.2.1-.3.3-.5.4-.1.1-.5.4 0 0 .6-.5.1-.1-.1.1-1.3 1-2.6 2-3.9 3.1-4.1 3.8-7.7 8.1-10.7 12.8-1.2 1.8-2.3 3.7-3.4 5.6-.5.8-.2 1.8.6 2.2.3.2.6.2 1 .2 1.6-.1 3.1-1.1 3.8-2.5 1.9-3.2 3.9-6.3 6.2-9.3.5-.6.9-1.2 1.4-1.8.2-.2.4-.5.6-.7.2-.2.6-.9.8-.9 0 0-.5.6-.1.1l.3-.3c.2-.2.4-.5.6-.7l1.2-1.2c.7-.6 1.4-1.3 2.1-1.9.3-.2.6-.5.9-.7.3-.2 1.4-1.1.3-.2 1-.7 2-1.5 3-2.4l.2-.2c-.4.4 1.2-1.4.7-.8.3-.3.6-.6.9-1 .4-.5.8-.9 1.2-1.4 1.3-1.6 2.4-3.4 3.4-5.2 2.8-4.8 4-10.3 3.5-15.9-.2-1.6-.5-3.1-1.1-4.6-.3-1.1-.8-2.1-1.4-3-.6-.6-1.8-1.5-3.2-2-3.2-1.2-7-.1-10.1 1.1-3.9 1.5-7.6 3.5-11 5.8-3.9 2.5-7.6 5.3-11.2 8.1-4.5 3.5-8.9 7.2-13.1 11.1l-.2.2c-.8.8-1.8 2.5-.5 3.4 1.2.8 3.1-.1 4-1"/></g><path id="Fill_10-2" class="st0" d="M255.5 155.4c-22.9 18-33.1 15.2-41.1 19.7-5.3 3.2-10.1 6.9-14.6 11.2l-46.1-50.5s18.2-13.9 31.3-31.7c10.4-14.1 28.5-38.4 45.2-77.5 16.9-39.6 36.6-11.3 11.1 49.1 0 0-14.8 21-6.2 35.6 8.5 14.6 24.3-16.2 48.3-7.4s-27.9 51.5-27.9 51.5"/><g id="Group_14-2" transform="translate(187.2 .156)"><path id="Fill_12-2" d="M66.9 154.7c-.7.6-1.5 1.2-2.2 1.7-.3.2-.6.5-.9.7l-.5.4c-.2.1-.2.1 0 0l-.3.2c-1.3.9-2.7 1.9-4 2.8-1.2.8-2.5 1.6-3.7 2.3-.2.1-1.1.6-.4.2-.3.1-.5.3-.8.4-.6.3-1.2.7-1.8 1-1.1.6-2.1 1.1-3.2 1.6-.2.1-.4.2-.7.3-.1.1-.3.1-.4.2-.4.2.5-.2.2-.1l-1.5.6c-1.7.7-3.4 1.3-5.2 1.8-.4.1-.7.2-1.1.3l-.3.1c-.4.1.2-.1.2-.1-.2 0-.4.1-.6.2-.7.2-1.4.4-2.2.6-1.5.4-3 .8-4.4 1.2-3.6 1.2-7.1 2.9-10.2 5.1-4.4 2.9-8.5 6.3-12.2 9.9l4.7-1.7-4.6-5c-3.7-4-7.3-8-11-12.1l-13.3-14.6-11.5-12.5-3.8-4.1c-.6-.7-1.2-1.4-1.8-2l-.1-.1-1.3 2.3c3.9-3 7.7-6.3 11.3-9.7 7.7-7 14.8-14.7 21-23.1C4.1 98.4 7.9 93.2 11.5 88c4.9-7.1 9.5-14.3 13.8-21.7 5.5-9.3 10.5-18.9 15.1-28.6 2.4-5 4.4-10.2 6.8-15.2.4-.9.8-1.7 1.3-2.5.2-.4.4-.7.6-1.1l.3-.6c.1-.2 0 .1 0 .1l.2-.3c.8-1.3 1.6-2.6 2.5-3.8.2-.3.4-.5.6-.8l.3-.3c.1-.1.1-.2.2-.2.2-.3-.1.1-.2.2.3-.5.7-.9 1.2-1.3l.6-.6c.4-.4-.4.3-.2.2.1-.1.2-.2.4-.3.2-.1.3-.3.5-.4.6-.5-.8.5 0 0l.6-.3c-.1.1-.9.5-.4.2.1-.1.2-.1.3-.2.6-.3-.6.2-.1.1.2 0 .4-.1.6-.2-.1.1-.7.2-.3.1.1 0 .2 0 .3-.1.4-.1.6 0 .1 0h1c.5 0-.2-.1.1 0 .2.1.3.1.5.1.3.1.6.2.9.4.1.1.3.2.4.3.3.2-.1-.2.2.2.3.2.5.5.8.8 1.2 1.5 2 3.2 2.5 5.1 0 .1.1.2.1.4 0 .1 0 .1.1.2.1.3.1.6.2.9.1.6.2 1.3.3 1.9.2 1.4.3 2.8.4 4.3.1 3.5 0 7-.4 10.4-1.1 9.4-3.3 18.7-6.4 27.6-.9 2.8-1.9 5.5-3 8.2-.6 1.4-1.1 2.8-1.7 4.2-.1.3-.3.7-.4 1l.1-.1-.1.1c-.9 1.6-2 3.2-2.9 4.8-3.4 6.2-6.1 13.2-6.3 20.3-.2 4 .7 7.9 2.6 11.5 1.3 2.3 3.2 4.1 5.9 4.5 2.9.4 5.9-.9 8.4-2.1 3.1-1.5 5.9-3.4 8.9-5.1l.5-.3c.1-.1.2-.1.3-.2l-.3.2c.4-.2.8-.5 1.2-.7.8-.4 1.6-.9 2.4-1.3.8-.4 1.7-.8 2.6-1.2-.5.2-.3.1.1 0 .2-.1.4-.2.6-.2.5-.2.9-.4 1.4-.5.4-.2.9-.3 1.3-.4.1 0 .7-.2.4-.1-.3.1 0 0 .1 0 .2 0 .3-.1.5-.1.9-.2 1.8-.4 2.8-.6.9-.1 1.8-.2 2.6-.2 1 0 2 0 3 .1 3.2.2 6.3 1.2 9 2.9.1.1.2.1.3.2l.1.1c.2.1.3.3.5.5.3.3.6.7.9 1 .5.7.8 1.4 1.1 2.2.1.3-.1-.2 0 0 0 .1 0 .2.1.3 0 .2.1.4.1.6 0 .4.1.9 0 1.3 0 .5-.1.9-.1 1.4 0 .2-.1.5-.1.7 0 .1 0 .2-.1.3-.1.4 0-.1 0 .1-.6 2.2-1.5 4.3-2.6 6.2l-.2.4c.2-.3.1-.2 0 0-.2.3-.3.6-.5.9-.3.6-.7 1.1-1.1 1.7-.8 1.1-1.5 2.3-2.4 3.4-.9 1.1-1.7 2.3-2.6 3.4-.1.1-.2.3-.3.4-.1.1.4-.4 0 0-.2.3-.5.6-.7.9-.5.6-1 1.1-1.5 1.7-3.7 4.1-7.6 8.1-11.6 11.9-.5.4-.9.8-1.4 1.3l-.3.3.1-.1-.6.6c-.8.7-1.5 1.4-2.3 2.1-1.1 1-2.2 2-3.4 2.9-1-.4-1.4 0-1.8.3-.5.4-2.2 2-1 2.6 1.1.5 3.1-.8 3.8-1.4 1.6-1.3 3.2-2.7 4.8-4.1 3.9-3.4 7.6-7 11.3-10.7 4.3-4.3 8.3-8.8 11.9-13.6 3-4 6-8.5 7.2-13.4 1-3.9.5-7.9-2.8-10.5-2.5-1.9-5.8-2.7-8.9-3.2-4.3-.6-8.6-.2-12.7 1.1-3.8 1.2-7.4 2.7-10.8 4.7-1.7 1-3.5 2-5.2 3-.7.4-1.4.9-2.1 1.3-.2.1-.3.2-.5.3-.3.2.4-.2.4-.2-.1.1-.2.1-.3.2-.3.2-.7.4-1 .6-.6.3-1.2.7-1.9.9-.2.1-.3.1-.5.2s.7-.3.2-.1c-.3.1-.6.2-.9.4-.2 0-.3.1-.5.1-.4.2.6-.1.1 0-.3.1-.6.1-.9.2-.1 0-.2 0-.4.1-.4.1.5 0 0 0h-.8c-.2 0-.9-.2-.4 0-.2-.1-.5-.1-.7-.2-.5-.2-1-.4-1.4-.8-.2-.1.1.1-.2-.1l-.3-.3-.7-.7c-.5-.6-.9-1.3-1.3-1.9-3.8-6.9-2.4-15.3.2-22.3.6-1.6 1.3-3.2 2.1-4.8.3-.7.7-1.3 1-2 .2-.3.3-.6.5-.9.1-.2.2-.3.3-.5 0-.1.1-.1.1-.2.1-.3-.2.4-.1.1.7-1.2 1.4-2.3 2.1-3.4.7-1.4 1.4-2.8 1.8-4.3.6-1.4 1.1-2.9 1.7-4.3 1-2.7 1.9-5.4 2.8-8.1 1.6-4.9 3-9.9 4-15 1.6-7.5 2.7-15.2 2.1-22.9-.2-2.6-.6-5.2-1.4-7.7-.5-1.8-1.4-3.4-2.6-4.7-3.1-3.2-7.5-1.9-10.9.2-5.1 3.1-8.6 8.6-11.3 13.9-2.3 4.6-4.2 9.4-6.3 14.1-2.4 5.3-5 10.5-7.6 15.7-4.5 8.8-9.5 17.3-14.7 25.6-4.1 6.5-8.4 12.8-12.9 19-4.7 6.7-9.7 13.1-15.1 19.2-3.3 3.6-6.8 7.1-10.4 10.4l-.3.2c.1-.1.5-.4.1 0l-.5.5c-.4.4-.8.7-1.2 1.1-.7.6-1.4 1.2-2.1 1.9-1.1 1-2.3 1.9-3.4 2.9l-3 2.4c-.4.3-1.9 1.7-1.3 2.3l4.6 5 11 12.1c4.4 4.9 8.9 9.7 13.3 14.6l11.5 12.6c1.9 2 3.6 4.2 5.6 6.1l.1.1c.5.5 1.4.3 2 .1 1-.4 2-1 2.7-1.8l.7-.7c.1-.1.3-.2.4-.4l-.1.1c.4-.4.8-.7 1.2-1.1 1-.8 1.9-1.7 2.9-2.4.6-.4 1.1-.9 1.7-1.3.3-.2.6-.5 1-.7.5-.4.2-.1.1 0 .2-.2.4-.3.6-.5 1.4-1 2.9-1.9 4.4-2.8.4-.3-.6.3 0 0 .1-.1.3-.1.4-.2.3-.1.5-.3.8-.4.1 0 .1-.1.2-.1l-.4.2c.1 0 .3-.1.4-.2.3-.1.6-.2.8-.3l1.8-.6.4-.1c.6-.2-.6.2-.1 0 .3-.1.6-.2 1-.3.7-.2 1.3-.4 2-.5 1.7-.4 3.3-.9 4.9-1.4 4-1.2 8-2.8 11.7-4.7 6.5-3.4 12.6-7.4 18.2-11.9.5-.4 2.2-2 1-2.6-1.3-.8-3.2.6-4 1.2"/></g><path id="Fill_15" d="M140.7 142.3l14.6-10.3 64.1 64.3-26.1 17-52.6-71z" fill="#fff"/><path id="Fill_17" d="M141.5 142.5l12.8-9.1 1.8-1.3-2.6 1 6.4 6.4c5.1 5.1 10.2 10.3 15.3 15.4l18.4 18.5 16 16.1 5.3 5.3c.8.9 1.6 1.7 2.5 2.5l.1.1 1.5-1.7-8.8 5.8-14 9.2-3.3 2.1 2.2-.6-5.2-7.1-12.6-17-15.2-20.5-13.1-17.8c-1.4-1.9-2.9-3.9-4.3-5.8-.6-1-1.3-1.9-2.1-2.8l-.1-.1c-.6-.8-4.1 1.7-3.6 2.4 1.7 2.4 3.5 4.7 5.2 7.1l12.6 17 15.2 20.5c4.4 5.9 8.8 11.8 13.2 17.8l4.3 5.8c.6 1 1.3 1.9 2.1 2.8l.1.1c.4.5 1.9-.5 2.2-.6l8.8-5.8 14-9.2 3.3-2.1c.2-.1 1.9-1.3 1.5-1.7l-6.4-6.4-15.3-15.4-18.4-18.5-16-16.1-5.3-5.3c-.8-.9-1.6-1.7-2.5-2.5l-.1-.1c-.6-.6-2.2.7-2.6 1L142 141l-1.8 1.3c-.3.2-1.4 1.1-.8 1.5.2.1 1.7-1.1 2.1-1.3"/><path id="Fill_19" d="M34.2 214.3s60.3-37.8 107.5-75.4c4 13 58.8 72 53.2 85.2C189.2 237.5 56 332.8 56 332.8l-40-10s-15.4-86.3-16-86l34.2-22.5z"/></svg>