<svg xmlns="http://www.w3.org/2000/svg" viewBox="0 0 368.4 231.2"><path d="M152.3 93.2s-15.4 12.9-29.2 23.8-56.7 31.7-99.7 29.6c-42.9-2.1-14.2 29.6 50.5 18.3s42.5 18.3 36.7 35.9c-5.8 17.5 2.1 37.9 17.1 24.6 15-13.3 10-21.7 28.8-33.8 18.8-12.1 14.2-23.8 20.4-30.4 4.3-4.4 9-8.3 14.2-11.7l-38.8-56.3z" fill="#ffca00"/><path d="M149.8 92.9c-5.7 4.8-11.5 9.5-17.3 14.2-4.4 3.5-8.7 7.2-13.2 10.5-1.3 1-2.6 1.8-4 2.7l-.5.3c-.4.3.5-.3-.1.1-.4.2-.8.5-1.2.7-.8.5-1.7 1-2.5 1.5-3.9 2.3-8 4.3-12.1 6.2l-.5.2.1-.1c-.3.1-.5.2-.8.4-.6.3-1.2.6-1.9.8l-3.6 1.5c-2.5 1-5.1 2-7.7 3-1.3.5-2.6.9-3.9 1.4-.7.2-1.4.5-2.1.7.6-.2-.2.1-.4.1-.4.1-.7.2-1.1.4-2.9.9-5.7 1.7-8.6 2.5-1.5.4-3 .8-4.5 1.1-.7.2-1.4.3-2.1.5l-1.1.2c-.6.1-.2 0-.1 0l-.8.2c-3.1.6-6.2 1.2-9.3 1.6-6.1.9-12.3 1.4-18.5 1.5-4.9.1-9.6-.4-14.6-.2-3.2.1-6.5.6-9.6 1.5-2.4.8-5 1.8-6.8 3.7-2.4 2.7-.9 5.8 1.4 8 1.8 1.6 3.9 2.9 6 3.9 2.8 1.3 5.8 2.4 8.8 3.3 8.7 2.3 17.7 3.5 26.8 3.5 5.8 0 11.6-.2 17.3-.8 6.2-.6 12.3-1.8 18.5-2.7 1.4-.2 2.9-.4 4.3-.6.7-.1 1.3-.2 2-.2.3 0 .6-.1.9-.1h-.1l.6-.1c2.3-.2 4.7-.4 7-.4h4c.5 0 .9 0 1.4.1 1.6.1 3.3.3 4.9.6.2 0 .4.1.6.1h.2c.3.1-.4-.1-.1 0 .3.1.7.2 1 .2l1.8.6c.5.2 1.1.4 1.6.7.2.1.5.2.7.3-.5-.3.3.2.4.3.8.5 1.5 1.1 2.2 1.8.3.3.6.7.8 1 0 0 .2.3.1.1s0 .1.1.1l.3.6c.7 1.5 1.1 3.2 1.2 4.9v1.8c0 .3-.1.5-.1.8-.1 1-.3 1.9-.5 2.9-1.1 4.2-2.6 8.3-4.4 12.2-2.3 5.3-4.4 10.6-5 16.4-.6 4.5-.1 9.1 1.3 13.5 1.2 3.3 3.3 6.6 6.8 7.8 4.8 1.6 10.2-.5 14.1-3.2 2.3-1.7 4.5-3.7 6.4-5.8 1.6-1.7 3.1-3.6 4.4-5.6 2.2-3.3 4-6.9 6-10.3 2.2-3.6 5-6.9 8.3-9.6 2.5-2 5.2-3.7 7.8-5.6 2.5-1.7 4.8-3.7 6.9-5.9 2.9-3.1 5.2-6.9 6.7-10.9 1.1-3 1.8-6.2 3-9.1.3-.6.6-1.3.9-1.8l.1-.2c.1-.1.2-.3.3-.4.2-.3.4-.6.7-.8 1.9-2.1 4-4 6.2-5.8 2.5-2.1 5-4 7.7-5.7.6-.4.9-.9.5-1.4L190 143l-9.3-13.5-11.2-16.2L160 99c-1.1-1.5-2.1-3.1-3.2-4.6-.5-.8-1-1.5-1.5-2.2 0 0 0-.1-.1-.1-.3-.4-1.3-.4-1.6-.4-.8 0-1.7.2-2.4.5-.8.3-2.5 1.1-1.8 2.1l3.8 5.6 9.3 13.5 11.2 16.2 9.7 14.1 3.2 4.6c.4.8 1 1.5 1.5 2.2 0 0 0 .1.1.1.2-.5.3-1 .5-1.4-2.8 1.8-5.4 3.7-7.9 5.9-2.4 1.9-4.7 4-6.8 6.3-1 1.1-1.8 2.4-2.4 3.8-1.3 2.8-1.9 5.9-2.9 8.8-1.3 3.9-3.4 7.4-6.1 10.4-4 4.4-9.4 7.1-14 10.9-3.6 2.9-6.6 6.3-9.1 10.2-2 3.3-3.8 6.9-5.8 10-2.6 4.2-6 7.9-9.9 10.9-.2.2-.5.4-.7.5-.1.1-.9.6-.4.3l-.6.3c-.1.1-.3.1-.4.2-.1 0-.6.3-.2.1.4-.2-.3.1-.4.2-.1 0-.2.1-.4.1 0 0 .7-.2.4-.1-.2 0-.4.1-.6.2 0 0 .8-.1.3-.1-.1 0-.2 0-.3.1-.5.1.2-.1.3 0h-.6-.3c-.2 0-.7-.2-.2 0-.3-.1-.7-.2-1-.3-.2-.1-.3-.1-.5-.2s.2.1 0 0c-.1-.1-.2-.1-.3-.2-3-1.9-4.4-5.6-5.2-8.9-1.7-7.5-.1-15 2.7-22 1.6-4 3.4-7.9 4.8-11.9 1.3-3.7 2.4-7.7 2.1-11.6-.3-3.7-2.5-6.9-5.7-8.6-5.7-3.2-12.7-3.4-19-3.2-5.2.2-10.3.6-15.5 1.4-6.1.9-12.2 2.1-18.4 2.7-.4 0-.8.1-1.2.1H62c-.7.1-1.5.1-2.2.2-1.4.1-2.9.2-4.3.3-2.7.1-5.3.2-8 .2-4.6 0-9.2-.4-13.7-1-2-.3-4.1-.6-6.1-1-.3-.1-.5-.1-.8-.2l-.3-.1c-.3-.1.3.1 0 0-.5-.1-.9-.2-1.4-.3-.9-.2-1.8-.4-2.7-.7-3-.8-5.9-1.9-8.6-3.2-.3-.1-.6-.3-.8-.4l-.2-.1s.3.2.1.1c-.2-.1-.3-.2-.5-.3l-1.5-.9c-.8-.6-1.6-1.2-2.4-1.9-.3-.3-.6-.6-.9-1-.1-.1-.2-.3-.3-.4l-.2-.2c.1.1.1.2 0 0-.3-.6-.6-1.2-.7-1.8v-.4-.2c0-.2-.1.4 0 .1.1-.3.1-.6.2-.8.1-.1.1-.3.2-.4.1-.3-.1.2-.1.1.1-.1.1-.2.2-.2.1-.1.2-.2.3-.4l.2-.2c.3-.3-.2.2-.2.1.1-.1.3-.2.4-.3.3-.2.8-.4 0 0 .2-.1.3-.2.5-.3.1 0 .2-.1.3-.1.5-.3-.6.3-.3.1l.6-.3c.1-.1.3-.1.4-.1 0 0 .1 0 .2-.1.5-.2-.4.1-.5.1.6-.1 1.1-.3 1.7-.5.6-.2-.5.1-.3.1s.3-.1.5-.1c.3-.1.7-.1 1-.2.3 0 .7-.1 1-.1.2 0 .3 0 .5-.1h.3c.5-.1-.6.1-.2 0 1.7-.1 3.4-.2 5.2-.2H21.2c1.6.1 3.1.1 4.7.2 3.2.1 6.3 0 9.5-.1 12.7-.7 25.3-2.9 37.6-6.4 10.8-3.1 21.4-7 31.6-11.9 7.2-3.3 14.1-7.3 20.5-11.9 4.6-3.5 9-7.1 13.4-10.7 4-3.2 7.9-6.4 11.8-9.7 1.6-1.3 3.2-2.6 4.7-3.9.3-.2.8-.7.7-1.1-.1-.5-.8-.6-1.2-.6-1.8-.8-3.4-.4-4.7.6"/><path d="M147.4 94.2l14.5-10.5 64.7 63.7-25.9 17.3-53.3-70.5z" fill="#fff"/><path d="M148.8 95c4.2-3.1 8.5-6.1 12.7-9.2l1.8-1.3H160l6.5 6.4 15.5 15.3 18.6 18.3 16.2 16 5.3 5.3c.8.9 1.6 1.7 2.5 2.5l.1.1.6-1.7-8.8 5.8-13.9 9.3-3.2 2.2h3.3l-5.3-7-12.7-16.9-15.4-20.3-13.3-17.6-4.4-5.8c-.7-.9-1.4-1.9-2.1-2.8l-.1-.1c-1-1.4-5 .2-3.8 1.8l5.3 7 12.7 16.9c5.1 6.8 10.2 13.6 15.4 20.3l13.3 17.6 4.4 5.8c.7.9 1.4 1.9 2.1 2.8l.1.1c.7 1 2.5.5 3.3 0l8.8-5.8 13.9-9.3 3.2-2.2c.5-.3 1.1-1.2.6-1.7l-6.5-6.4-15.5-15.3-18.6-18.3-16.2-16c-2.6-2.6-5.2-5.2-7.9-7.7l-.1-.1c-1-.7-2.3-.7-3.3 0l-12.7 9.2-1.8 1.3c-.7.5-1.1 1.4-.3 2 .9.3 2.1.2 3-.5"/><path d="M244.8 2.2s-82.3 71.5-86.7 79.9c11.8 6.9 56.8 73.5 71 71 14.2-2.4 137.2-110.7 137.2-110.7l-.7-41.2c0-.1-121.3 1.5-120.8 1"/><path d="M243.1 1.9c-2.8 2.4-5.5 4.8-8.3 7.2-6.7 5.8-13.3 11.7-19.9 17.6-8.2 7.2-16.3 14.5-24.4 21.9-7.3 6.6-14.6 13.3-21.8 20.1-2.6 2.5-5.1 5-7.6 7.5-1.6 1.6-3.2 3.3-4.5 5.1-.2.2-.3.5-.5.7-.2.5-.2.7.3 1 .1.1.5.3.2.1.1.1.3.2.4.3.3.2.6.5.9.7.7.6 1.4 1.2 2.1 1.9 1.8 1.7 3.4 3.5 5.1 5.3 4.4 4.9 8.7 10.1 12.9 15.2 4.9 6 9.8 12 14.9 17.8 4.8 5.6 9.6 11.2 14.8 16.4 3.9 4 8.1 8 12.9 11.1 3.2 2 6.6 3.1 10.2 1.8 2.5-1 4.9-2.3 7.1-3.8 3.7-2.4 7.2-4.9 10.7-7.5 4.5-3.3 8.9-6.7 13.3-10.2 5.1-4 10.2-8.1 15.3-12.3 5.5-4.5 11-9 16.4-13.5 5.6-4.6 11.1-9.3 16.7-14 5.4-4.5 10.7-9.1 16.1-13.7 4.9-4.2 9.8-8.4 14.6-12.6 4.1-3.5 8.2-7.1 12.3-10.6 3-2.6 6-5.2 9-7.9 1.7-1.5 3.3-2.9 5-4.4.2-.2.5-.4.7-.6.8-.8.4-2.5.4-3.5-.1-5.9-.2-11.8-.3-17.6-.1-6-.2-12-.3-17.9 0-1 0-2-.1-3 0-.5-1-.6-1.3-.6l-12 .1-28.6.3c-11.6.1-23.2.3-34.7.4-10.1.3-20.1.3-30.2.4h-14.7-.1c.3.1 1.2.2.6 1.1.6-.8-.5-1.1-1.1-1.1-1 0-2 .4-2.8 1.1-1 1.4 3.2 1.2 3.8 1.2h8.5c9.6 0 19.2-.1 28.8-.2 11.7-.1 23.4-.2 35.1-.4 10.2-.1 20.4-.2 30.5-.4l10.1-.1c1.6 0 3.2.1 4.8-.1h.2l-1.3-.6c.1 4.7.2 9.3.2 14 .1 7.4.3 14.8.4 22.1 0 1.7.1 3.4.1 5.1l.4-.9c-2.4 2.1-4.7 4.1-7.1 6.2-6.1 5.3-12.2 10.7-18.4 16-8.4 7.3-16.9 14.5-25.3 21.7-9.3 7.9-18.7 15.8-28.1 23.6-8.8 7.3-17.7 14.5-26.7 21.6-3.8 3-7.7 6-11.5 8.9-1.7 1.3-3.4 2.5-5.1 3.7-.8.5-1.5 1.1-2.3 1.6l-.5.4c-.4.3.3-.2 0 0l-.3.2c-.4.3-.8.5-1.1.8-2.2 1.6-4.6 3-7 4.3-.2.1-.4.2-.7.3-.3.2.6-.3.1 0-.1.1-.2.1-.3.2-.4.2-.7.3-1.1.4s.6-.2.3-.1c-.1 0-.1 0-.2.1-.1 0-.1 0-.2.1-.4.1.6-.1.3-.1-.1 0-.6.1-.2 0s-.1 0-.2 0c-.5 0 .1 0 0 0-.2 0-.3 0-.5-.1-.1 0-.3-.1-.4-.1-.1 0-.6-.2-.2 0-.4-.1-.7-.2-1-.4-.8-.3-1.5-.7-2.2-1.1-1.6-1-3.2-2.1-4.7-3.3-4.1-3.4-7.9-7.1-11.5-11.1-8.9-9.4-17-19.5-25.3-29.5-3.8-4.6-7.5-9.1-11.4-13.6-2.7-3.3-5.7-6.4-8.8-9.3-1-.9-2.1-1.8-3.2-2.5.1.3.2.7.3 1 1-1.5 2.1-2.9 3.4-4.1.2-.2.4-.5.6-.7l.2-.2c.3-.3-.2.2 0 0l.4-.4c.5-.6 1.1-1.1 1.6-1.7 1.3-1.3 2.6-2.6 3.9-3.8 6.8-6.6 13.9-13.1 20.9-19.5 8.1-7.4 16.3-14.7 24.5-22l20.7-18.3c3.3-2.9 6.7-5.8 10-8.7l.1-.1c.7-.6.5-1.2-.4-1.4-.8 0-1.9.3-2.7 1"/><path d="M110.6 170.3s-22.5 8.8-30 15.4c-7.5 6.7-25.4 15-25 7.9.1-3.8.8-7.6 2.1-11.3 0 0-12.5 13.8-17.5 6.7-5-7.1 6.3-20.8 6.3-20.8s37.1-11.3 51.7-11.3 12.4 13.4 12.4 13.4" fill="#ffcb00"/><path d="M109.4 169.3c-2.9 1.1-5.8 2.4-8.6 3.6-5.6 2.4-11.1 5.1-16.4 8.1-2.3 1.3-4.5 2.8-6.5 4.5-1 .9-2.1 1.7-3.3 2.5-.6.4-1.2.8-1.7 1.2-.1.1-1 .7-.6.4-.4.2-.8.5-1.2.7-1.3.8-2.7 1.5-4.1 2.2-.3.2-.7.3-1 .5.8-.3-.3.1-.5.2-.7.3-1.4.6-2.2.9-.3.1-.6.2-1 .3 1-.4 0 0-.3.1s-.6.2-.9.2c-.8.2.6-.1-.2 0-.3 0-.5.1-.8.1-.6.1.8 0 .2 0h-.7s.7.1.3 0c-.3 0-.9-.3-.3 0-.2-.1-.4-.1-.5-.2-.2-.1.3.3.1 0-.1-.1-.2-.1-.2-.2-.1-.1-.4-.5-.2-.2-.1-.2-.2-.4-.2-.5-.1-.6-.1-1.1 0-1.7.1-1.2.2-2.4.4-3.7.3-2.2.8-4.5 1.6-6.6.4-1.1-1.7-1-2.2-1-1.4.1-2.7.6-3.8 1.5-.4.4-.8.8-1.1 1.2-.4.4-.9.8-1.3 1.3l-.3.3-.1.1c-.3.3-.6.5-.9.8-.6.5-1.2 1-1.9 1.5-.3.2-.7.5-1 .7-.2.1-.3.2-.5.3-.2.2.2-.1.2-.1-.1.1-.2.1-.4.2-.3.2-.6.4-1 .5-.1.1-.8.3-.2.1.5-.2-.2.1-.3.1-.2 0-.4.1-.5.2 0 0 .9-.2.4-.1-.1 0-.2 0-.2.1-.6.2.7-.1.2 0h-.2c-.5.1.2-.1.3 0-.2-.1-.6.2-.2 0 .2-.1.3 0 .1 0h-.3c-.3 0-.3-.1 0 0-.2-.1-.4-.1-.5-.2-.1 0-.5-.2-.3-.1s-.2-.1-.3-.2c-.3-.2-.6-.5-.8-.8-1-1.3-1.5-2.8-1.4-4.4-.1-3.5 1.7-7.1 3.4-10.1 1.1-2 2.4-4 3.9-5.8l-2.5 1.3c8.5-2.6 17.1-4.9 25.8-7l5.1-1.2 1.2-.3.5-.1c.8-.2-.8.2 0 0s1.7-.3 2.5-.5c3-.6 6.1-1.1 9.2-1.5.7-.1 1.4-.2 2.1-.2 0 0-.8.1-.3 0h.5c.4 0 .7-.1 1.1-.1.5 0 1.1-.1 1.6-.1h1c.8 0-.5-.1.3 0 .2 0 .5 0 .7.1.8 0 1.5.2 2.2.4.7.2 1.4.5 2.1.8.2.1.3.2.5.3.3.2.5.4.8.6.5.4.9.8 1.3 1.2.8.9 1.3 1.9 1.7 3 .3 1 .6 2 .7 3 .1.8.1 1.6.1 2.3v.7c-.2 1.2 1.9 1 2.6.9.8-.1 1.6-.4 2.4-.8.4-.2 1.2-.6 1.2-1.1.3-2.2.1-4.5-.6-6.6-1.6-4.7-5.9-7-10.7-7.6-5.1-.6-10.4.3-15.4 1.2-5.9 1-11.7 2.3-17.4 3.8-7.8 1.9-15.5 4-23.2 6.3-1.3.3-2.5 1-3.3 2-1.1 1.5-2.2 3-3.1 4.6-2.4 4-5.2 9.4-3.9 14.2.5 2.2 2.2 4 4.4 4.6 3.1.8 6.5-.3 9.3-1.6 3.8-2 7.3-4.6 10.2-7.8l.6-.6-6 .6c-.7 1.9-1.2 3.8-1.5 5.8-.4 2-.6 4-.7 6.1 0 .8.3 1.6.9 2.1 1.9 1.6 5.1 1.1 7.3.6 3.4-.8 6.7-1.9 9.8-3.5 3.1-1.5 6.1-3.2 8.9-5.1 2.1-1.5 4-3.3 6.2-4.8.5-.4 1.1-.7 1.6-1.1l.4-.3c-.6.4 0 0 .1-.1.3-.2.6-.4 1-.6 1.3-.8 2.7-1.5 4.1-2.2 2.7-1.4 5.5-2.8 8.3-4 .1-.1.8-.4.1 0l.6-.3c.4-.2.7-.3 1.1-.5l2.1-.9 3.6-1.5c1.1-.5 2.2-.9 3.3-1.3.6-.2 2.7-1.2 1.8-2.1-1-.6-3.4.1-4.3.4"/></svg>