<svg xmlns="http://www.w3.org/2000/svg" width="24.416" height="21.989" viewBox="0 0 24.416 21.989"><g fill="none" stroke="#000" stroke-linecap="round" stroke-linejoin="round" stroke-miterlimit="10" stroke-width="1.778"><path data-name="Stroke 1" d="M4.78 21.099H2.164a1.3 1.3 0 01-1.275-1.314V9.138a1.294 1.294 0 011.275-1.313H4.78a1.277 1.277 0 011.257 1.3v10.678a1.278 1.278 0 01-1.257 1.296z"/><path data-name="Stroke 3" d="M6.123 17.86l2.174 2.411a2.475 2.475 0 001.841.828h8.929a2.527 2.527 0 002.417-1.876l1.932-6.925a2.661 2.661 0 00-.327-2.16l-.483-.744a2.493 2.493 0 00-2.083-1.149h-4.4v-4.77a2.675 2.675 0 00-.578-1.665 2.407 2.407 0 00-3.839.068L6.123 9.372"/></g></svg>