<svg xmlns="http://www.w3.org/2000/svg" width="20" height="20" viewBox="0 0 20 20"><path data-name="Fill 1" d="M18.524 20H1.476A1.478 1.478 0 010 18.524V1.476A1.478 1.478 0 011.476 0h17.048A1.478 1.478 0 0120 1.476v17.048A1.478 1.478 0 0118.524 20zM12.541 9.814c.994 0 1.5.678 1.5 2.014v5.217h3.007v-5.908c0-2.885-1.8-3.912-3.491-3.912A3.3 3.3 0 0010.7 8.817h-.039V7.493H7.767v9.553h3.007v-5.18a1.834 1.834 0 011.767-2.052zM2.955 7.486v9.552h3.006V7.486zm1.5-4.776a1.727 1.727 0 101.736 1.727A1.712 1.712 0 004.458 2.71z" fill="#0a66c2"/></svg>