<svg version="1.1" id="Слой_1" xmlns="http://www.w3.org/2000/svg" x="0" y="0" viewBox="0 0 167.6 40.7" xml:space="preserve"><style>.st0{fill:#fff}</style><g id="attendify"><path id="Shape" class="st0" d="M7.8 32c-2.1.1-4.1-.5-5.7-1.8C.7 29 0 27.3.1 25.5 0 23 1.5 20.7 3.9 19.8c2.5-1.2 6.2-1.8 11.5-1.9h.6v-.5c0-3.4-2-5.3-5.6-5.3-2.9 0-5.4 1.5-6.6 3.9h-.1c-.5 0-1.1-.1-1.6-.4-.7-.3-1.2-1.1-1.2-1.9.2-1.4 1.1-2.7 2.4-3.4C5.5 9 8 8.3 10.6 8.4c3.2 0 5.6.8 7.3 2.3 1.8 1.7 2.7 4.1 2.5 6.6v13.8c0 .2-.8.5-1.7.5-1.9 0-2.8-1.2-2.9-3.6-1.8 2.7-4.8 4.1-8 4zm8-11.1h-1.3c-2.5 0-5.1.4-7.5 1.2-1.7.7-2.5 1.8-2.5 3.3 0 2 1.6 3.3 4.3 3.3 4 0 7-2.6 7-6.1v-1.7z"/><path id="Shape-2" class="st0" d="M61.4 32.1c-7.2 0-12-4.7-12-11.7-.1-3.2 1.1-6.2 3.3-8.5 2.2-2.2 5.2-3.4 8.3-3.4 3-.1 5.8 1 7.9 3.1 2 2.2 3.1 5.1 3 8.1v.4c0 1-.4 1.4-1.4 1.4H53.7c.3 4.2 3.4 7 7.7 7 3.3 0 5.6-1.2 7.1-3.7h.1c.3 0 2.4.4 2.4 2.3 0 1.1-1 2.3-2.5 3.3-2.1 1.1-4.6 1.7-7.1 1.7zM60.9 12c-3.7 0-6.7 2.7-7.1 6.4h13.6c-.3-4-2.7-6.4-6.5-6.4z"/><path id="Shape-3" class="st0" d="M78.6 12.4c1.7-2.5 4.5-4 7.6-4 6 0 8.8 4.1 8.8 9.6v11.4c0 1.7-.9 2.2-2.1 2.2h-.5c-1.2 0-2.1-.5-2.1-2.2V18.6c0-3.8-1.9-6.1-5.3-6.1-2.7-.1-5.2 1.5-6.4 3.9v13c0 1.7-.9 2.2-2.1 2.2H76c-1.2 0-2.1-.5-2.1-2.2V9.3c.5-.4 1.1-.6 1.7-.5 1.4 0 2.8.7 3 3.6z"/><path id="Shape-4" class="st0" d="M107.4 32c-2.9 0-5.6-1.1-7.5-3.2-2-2.4-3.1-5.4-3-8.5-.1-3.1 1-6.2 3-8.6 2-2.1 4.8-3.3 7.8-3.2 3-.1 6 1.2 7.8 3.7V.6c.5-.4 1.1-.6 1.7-.5 2 0 3 1.3 3 4v25.4c0 1.5-.7 2.2-2.1 2.2h-.5c-1.4 0-2.1-.7-2.1-2.2v-1.7c-.8 1.3-2 2.4-3.3 3.2-1.5.7-3.1 1.1-4.8 1zm1.1-19.7c-4.2 0-7.1 3.2-7.1 8 0 4.6 2.9 8 7 8 4 0 7.1-2.9 7.1-6.6v-4.8c-1.1-2.9-4-4.8-7-4.6z"/><path id="Shape-5" class="st0" d="M121.9 3.2c0-2.1 1.3-3.2 3.4-3.2 2.1 0 3.3 1.1 3.3 3.2s-1.2 3.1-3.4 3.1c-2 0-3.3-1.1-3.3-3.1z"/><path id="Shape-6" class="st0" d="M122.9 29.5V11c0-1.7.9-2.2 2.1-2.2h.5c1.2 0 2.1.5 2.1 2.2v18.4c0 1.7-.8 2.2-2.1 2.2h-.5c-1.2 0-2.1-.5-2.1-2.1z"/><path id="Shape-7" class="st0" d="M154 40.7c-.9-.1-1.8-.5-2.4-1.2 0 0-.1-.1-.1-.2l3.8-9.1c-.9 0-1.7-.5-2-1.3l-8.1-18.8c0-.1 0-.2.1-.3.6-.7 1.5-1.1 2.4-1.1 1.4 0 2.3.7 3 2.6l6.1 15.5 5.4-15.4c.6-1.8 1.5-2.7 2.9-2.7.9 0 1.8.4 2.4 1.1.1.1.1.1.1.2l-10.7 28c-.6 1.8-1.6 2.7-2.9 2.7zm-17.2-9.1h-.5c-1.4 0-2.1-.7-2.1-2.2V13.9h-2.6c-1.4 0-2-.6-2-1.8v-.4c0-1.2.6-1.7 2.1-1.7h2.6V8.4c0-5.4 2.5-8.3 7.2-8.3 3.7 0 5.1 1.6 5.1 3 0 .8-.4 1.6-1.1 2-.9-.8-2.1-1.3-3.4-1.3-2.3 0-3.3 1.4-3.3 4.6V10h3.8c1.4 0 2.1.5 2.1 1.7v.3c0 1.2-.6 1.7-2.1 1.7h-3.7v15.6c.1.6-.1 1.2-.6 1.7-.4.5-1 .7-1.5.6z"/><path id="Shape-8" class="st0" d="M31.6 31.7c-1.9.1-3.8-.5-5.2-1.9-1.2-1.5-1.8-3.5-1.7-5.4V12.8h-1.6c-1.4 0-2-.5-2-1.7v-.3c0-1.2.6-1.7 2-1.7h9.7c-.8.3-1.3 1.1-1.2 1.9-.1.8.4 1.5 1.1 1.8h-3.4v11.1c-.1 1.1.1 2.2.7 3.1.6.7 1.4 1.1 2.3 1 1.3 0 2.5-.5 3.2-1.5h.1c.8.3 1.3 1.1 1.3 1.9 0 1-.6 1.8-1.4 2.3-1.2.7-2.6 1.1-3.9 1z"/><path id="Shape-9" class="st0" d="M44.4 31.7c-1.9.1-3.8-.5-5.2-1.9-1.2-1.5-1.8-3.5-1.7-5.4V12.8h-2.7c.7-.3 1.1-1 1.1-1.8.1-.9-.5-1.7-1.3-1.9h12.7c1.4 0 2 .5 2 1.6v.3c0 1.2-.6 1.8-2 1.8h-5.2v11.1c-.1 1.1.1 2.1.7 3 .6.7 1.4 1.1 2.3 1 1.3 0 2.5-.5 3.2-1.5h.1c.8.3 1.3 1.1 1.3 1.9 0 1-.6 1.8-1.4 2.3-1.2.8-2.6 1.1-3.9 1.1z"/><path id="Shape-10" class="st0" d="M36.8 5.2c0-2 1.3-3.1 3.5-3.1 2.1 0 3.3 1.1 3.3 3.1s-1.2 3-3.4 3-3.4-1.1-3.4-3z"/><path id="Shape-11" class="st0" d="M23.4 5.2c0-2 1.3-3.1 3.5-3.1 2.1 0 3.3 1.1 3.3 3.1s-1.2 3-3.4 3-3.4-1.1-3.4-3z"/><path id="Shape-12" class="st0" d="M32.3 11c-.1-.7.5-1.3 1.2-1.4h.3c.7-.1 1.4.4 1.4 1.1v.3c0 .9-.5 1.4-1.5 1.4-.7.1-1.3-.4-1.4-1.1V11z"/></g></svg>