<svg xmlns="http://www.w3.org/2000/svg" width="166.259" height="40.331" viewBox="0 0 166.259 40.331"><g fill="#013"><path d="M7.71 31.745a8.67 8.67 0 01-5.679-1.756A5.838 5.838 0 01-.001 25.37a5.906 5.906 0 013.746-5.643c2.451-1.192 6.17-1.814 11.369-1.9h.613v-.48c0-3.384-1.976-5.247-5.564-5.247a6.777 6.777 0 00-6.44 3.816.236.236 0 01-.093.008 3.9 3.9 0 01-1.561-.37 1.947 1.947 0 01-1.193-1.85 4.722 4.722 0 012.437-3.464 12.825 12.825 0 017.201-1.87c3.146 0 5.6.784 7.289 2.331a8.477 8.477 0 012.524 6.559v13.66c0 .218-.839.521-1.664.521-1.878 0-2.809-1.163-2.848-3.557a9.775 9.775 0 01-8.105 3.861zm7.973-11.058l-1.27.043a21.734 21.734 0 00-7.414 1.176c-1.673.718-2.486 1.795-2.486 3.29 0 2.006 1.628 3.253 4.25 3.253 4.011 0 6.922-2.535 6.922-6.028z"/><path data-name="Shape" d="M60.893 31.831c-7.128 0-11.917-4.671-11.917-11.618a11.962 11.962 0 013.264-8.439 11.385 11.385 0 018.259-3.361 10.574 10.574 0 017.842 3.106 11.362 11.362 0 012.979 8.083v.39c0 1.005-.354 1.345-1.4 1.345H53.313a7.266 7.266 0 007.663 6.895c3.3 0 5.606-1.206 7.054-3.686a.119.119 0 01.066-.011c.313 0 2.387.422 2.387 2.266 0 1.046-.957 2.29-2.5 3.247a13.645 13.645 0 01-7.09 1.783zm-.528-19.949a7.066 7.066 0 00-7.052 6.331h13.495c-.222-3.9-2.656-6.33-6.353-6.33zM77.979 12.316a8.778 8.778 0 017.492-3.946c5.958 0 8.719 4.033 8.719 9.541v11.318c0 1.648-.876 2.168-2.059 2.168h-.526c-1.227 0-2.059-.52-2.059-2.168V18.47c0-3.773-1.928-6.071-5.214-6.071a6.748 6.748 0 00-6.309 3.9v12.93c0 1.648-.876 2.168-2.059 2.168h-.526c-1.227.001-2.059-.52-2.059-2.168V9.237a2.309 2.309 0 011.665-.52c1.358 0 2.76.694 2.935 3.6zM106.506 31.788a9.938 9.938 0 01-7.467-3.21 12.3 12.3 0 01-2.965-8.456 12.242 12.242 0 013-8.489 10.16 10.16 0 017.69-3.22 9.1 9.1 0 017.71 3.642V.563a2.394 2.394 0 011.666-.52c1.948 0 2.934 1.328 2.934 3.947v25.24c0 1.479-.654 2.168-2.059 2.168h-.482c-1.4 0-2.059-.689-2.059-2.168v-1.736a9.794 9.794 0 01-3.286 3.155 9.222 9.222 0 01-4.6 1.139zm1.091-19.6c-4.193 0-7.01 3.189-7.01 7.936 0 4.6 2.911 7.936 6.922 7.936 3.931-.047 7.01-2.923 7.01-6.548v-4.73a7.045 7.045 0 00-6.922-4.596zM120.953 3.166c0-2.038 1.271-3.166 3.417-3.166 2.103 0 3.283 1.128 3.283 3.166s-1.18 3.079-3.326 3.079c-2.103 0-3.374-1.084-3.374-3.079zM121.961 29.228v-18.3c0-1.648.876-2.212 2.1-2.212h.482c1.23 0 2.062.52 2.062 2.212v18.3c0 1.648-.832 2.168-2.059 2.168h-.485c-1.227 0-2.1-.52-2.1-2.168zM152.804 40.33a3.7 3.7 0 01-2.4-1.168.226.226 0 01-.055-.177l3.724-9.021a2.01 2.01 0 01-1.972-1.3l-8.061-18.6c-.02-.06.019-.165.107-.288a3.037 3.037 0 012.346-1.056c1.413 0 2.236.729 2.936 2.6l6.089 15.4 5.389-15.266c.591-1.834 1.51-2.688 2.892-2.688a3.472 3.472 0 012.39 1.064c.056.078.079.142.064.185l-10.6 27.755c-.644 1.724-1.575 2.56-2.849 2.56zm-17.086-8.932h-.482c-1.415 0-2.1-.709-2.1-2.169V13.747h-2.632c-1.415-.042-2.015-.574-2.015-1.777v-.347c0-1.155.616-1.648 2.059-1.648h2.629V8.33c0-5.366 2.47-8.2 7.142-8.2 3.719 0 5.038 1.612 5.038 2.993a2.169 2.169 0 01-1.113 2 .048.048 0 01-.027-.007 5.069 5.069 0 00-3.373-1.3c-2.243 0-3.243 1.4-3.243 4.553v1.6h3.812c1.424 0 2.059.535 2.059 1.734v.3c0 1.2-.635 1.734-2.059 1.734h-3.68V29.23c0 1.479-.644 2.168-2.015 2.168zM31.308 31.475a6.666 6.666 0 01-5.144-1.845 7.778 7.778 0 01-1.641-5.383V12.73h-1.632c-1.383 0-2.027-.542-2.027-1.7v-.3c0-1.16.644-1.7 2.027-1.7h9.639a1.814 1.814 0 00-1.173 1.87 1.819 1.819 0 001.049 1.786h-3.342v11.052a5.236 5.236 0 00.672 3.039 2.626 2.626 0 002.324 1 3.957 3.957 0 003.217-1.53.076.076 0 01.054-.016 1.937 1.937 0 011.268 1.929 2.824 2.824 0 01-1.388 2.3 6.913 6.913 0 01-3.903 1.015z"/><path data-name="Shape" d="M43.999 31.433a6.666 6.666 0 01-5.145-1.845 7.778 7.778 0 01-1.641-5.383V12.688h-2.651a1.782 1.782 0 001.044-1.788 1.829 1.829 0 00-1.277-1.912h12.577c1.409 0 1.984.468 1.984 1.615v.3c0 1.206-.625 1.743-2.028 1.743h-5.111v11.05a5.236 5.236 0 00.672 3.039 2.626 2.626 0 002.324 1 3.957 3.957 0 003.217-1.53.076.076 0 01.054-.016 1.937 1.937 0 011.268 1.929 2.824 2.824 0 01-1.388 2.3 6.913 6.913 0 01-3.899 1.015zM36.551 5.159c0-1.995 1.278-3.1 3.437-3.1 2.115 0 3.3 1.105 3.3 3.1S42.103 8.18 39.944 8.18s-3.393-1.105-3.393-3.021zM23.2 5.159c0-1.995 1.278-3.1 3.437-3.1 2.115 0 3.3 1.105 3.3 3.1S28.752 8.18 26.593 8.18 23.2 7.075 23.2 5.159z"/><path data-name="Shape" d="M32.027 10.895a1.292 1.292 0 011.471-1.387 1.281 1.281 0 011.438 1.387c0 .9-.535 1.355-1.471 1.355a1.273 1.273 0 01-1.438-1.355z"/></g></svg>