<svg xmlns="http://www.w3.org/2000/svg" viewBox="0 0 274.8 321"><path d="M209.3 321h-123c-7.4 0-13.4-6-13.4-13.4V73.8c0-7.4 6-13.4 13.4-13.4l123-3.3c3.1-.2 6.1 1.3 7.8 3.9 1.5 2.3 2.2 5.5 2.2 9.5l3.3 237.2c0 7.4-5.9 13.3-13.3 13.3zm-64-32.8c-5.1 0-9.3 4.2-9.3 9.3 0 5.1 4.2 9.3 9.3 9.3s9.3-4.2 9.3-9.3c-.1-5.2-4.2-9.3-9.3-9.3zm52.2-212.5L94.7 78.6c-6.3 0-11.5 5.1-11.5 11.5v175.5c0 7.2 5.8 13 13 13H196c7.2 0 13-5.8 13-13V87.2c0-6.4-5.1-11.5-11.5-11.5zM2.5 77.6l21.8.6c1.1 0 2.2-.2 3.2-.6.9-.3 1.6-.9 2.2-1.6.9-1.6-.8-2.4-2.2-2.5l-21.9-.6c-1.1 0-2.2.2-3.2.6-.9.3-1.6.9-2.2 1.6-.9 1.7.8 2.5 2.3 2.5M148.9 23.2V2c.1-.7-.3-1.3-.9-1.6-.8-.4-1.8-.5-2.7-.4-1.1.1-2.1.5-3.1 1.1-.6.4-1.5 1.1-1.5 1.8v21.2c-.1.7.3 1.3.9 1.6.8.4 1.8.5 2.7.4 1.1-.1 2.1-.5 3.1-1.1.6-.4 1.5-1.1 1.5-1.8M263.2 60c3.8-1.3 7.4-3 10.7-5.2.3-.2 1-.8.9-1.3-.1-.5-1-.7-1.5-.7-2-.1-4 .4-5.7 1.5-.4.2-.7.5-1.1.7l-.3.2c.5-.3.6-.4.4-.2-.2.1-.3.2-.5.3-.7.4-1.4.8-2.2 1.1-.3.2-.7.3-1 .5 1.4-.6-.1 0-.4.2-.8.3-1.5.6-2.3.8-.8.3-1.6.7-2.2 1.3-.3.3-.6.9-.1 1.2.6.4 1.4.5 2.1.4 1.1-.2 2.2-.4 3.2-.8M47.9 21.4c-.1 0-.2 0-.3.1l1.1-.2c-.3.1-.5.1-.8.1H49c-.3 0-.5 0-.8-.1l.9.2-.9-.3.8.4c-.3-.2-.7-.4-.9-.7l.6.6c-.1-.1-.2-.2-.2-.3-.2-.3-.6-.6-1-.8-.4-.2-.9-.4-1.3-.4-.5-.1-1.1-.1-1.6.1-.6.1-1.1.2-1.6.5l-.9.5c-.5.4-.9.8-1.2 1.4-.1.3-.2.5-.2.8-.1.5.1 1.1.4 1.5.4.5.9.9 1.4 1.3l1.2.6c.2.1.4.2.5.2.6.2 1.3.4 2 .4h1.6c.5-.1 1.1-.2 1.6-.3.5-.1 1-.3 1.5-.7.4-.2.8-.5 1.1-.9.3-.3.5-.7.6-1.1.2-.4.2-.8.1-1.2l-.3-.7c-.4-.4-.8-.8-1.4-1-1.1-.2-2.1-.2-3.1 0M231.1 15.2c1.2-1.8 2.5-3.6 3.9-5.2l-.3.4c.6-.6 1.2-1.3 1.8-1.9.3-.3.6-.7.2-1-.3-.1-.5-.2-.8-.2-.4-.1-.8 0-1.2 0-1.1.1-2.1.4-3.1.7-.8.2-1.6.6-2.3 1.2-2.3 2.3-4.3 4.8-6 7.5-.3.5.3.7.6.8.9.1 1.7.1 2.6-.1 1.1-.2 2.1-.5 3.1-.9.5-.3 1.1-.7 1.5-1.3"/></svg>