<svg xmlns="http://www.w3.org/2000/svg" xmlns:xlink="http://www.w3.org/1999/xlink" viewBox="0 0 274.8 321"><path d="M394.5 60h149.8v263.9H394.5V60z" fill="none"/><g transform="translate(466.384 117.107)"><defs><path id="a" d="M.5 0h149.8v263.9H.5z"/></defs><clipPath id="b"><use xlink:href="#a" overflow="visible"/></clipPath><g clip-path="url(#b)"><path d="M136.9 263.9h-123c-7.4 0-13.4-6-13.4-13.4V16.7c0-7.4 6-13.4 13.4-13.4l123-3.3c3.1-.2 6.1 1.3 7.8 3.9 1.5 2.3 2.2 5.5 2.2 9.5l3.3 237.2c.1 7.3-5.9 13.3-13.3 13.3zm-64-32.8c-5.1 0-9.3 4.2-9.3 9.3s4.2 9.3 9.3 9.3c5.1 0 9.3-4.2 9.3-9.3-.1-5.2-4.2-9.3-9.3-9.3zm52.2-212.5L22.3 21.4c-6.3 0-11.5 5.1-11.5 11.5v175.5c0 7.2 5.8 13 13 13h99.9c7.2 0 13-5.8 13-13V30.1c-.1-6.4-5.2-11.5-11.6-11.5z"/></g></g><path d="M324.1 80.5l21.8.6c1.1 0 2.2-.2 3.2-.6.9-.3 1.6-.9 2.2-1.6.9-1.6-.8-2.4-2.2-2.5l-21.8-.6c-1.1 0-2.2.2-3.2.6-.9.3-1.6.9-2.2 1.6-.9 1.7.8 2.5 2.2 2.5M470.6 26.1V4.9c.1-.7-.3-1.3-.9-1.6-.8-.4-1.8-.5-2.7-.4-1.1.1-2.1.5-3.1 1.1-.6.4-1.5 1.1-1.5 1.8V27c-.1.7.3 1.3.9 1.6.8.4 1.8.5 2.7.4 1.1-.1 2.1-.5 3.1-1.1.5-.4 1.5-1.1 1.5-1.8M584.8 62.9c3.8-1.3 7.4-3 10.7-5.2.3-.2 1-.8.9-1.3s-1-.7-1.5-.7c-2-.1-4 .4-5.7 1.5-.4.2-.7.5-1.1.7l-.2.1c.5-.3.6-.4.4-.2-.2.1-.3.2-.5.3-.7.4-1.4.8-2.2 1.1-.3.2-.7.3-1 .5 1.4-.6-.1 0-.4.2-.8.3-1.5.6-2.3.8-.8.3-1.6.7-2.2 1.3-.3.3-.6.9-.1 1.2.6.4 1.4.5 2.1.4 1-.1 2.1-.3 3.1-.7M369.5 24.3c-.1 0-.2 0-.3.1l1.1-.2c-.3.1-.5.1-.8.1h1.1c-.3 0-.5 0-.8-.1l.9.2-.9-.3.8.4c-.3-.2-.7-.4-.9-.7l.6.6c-.1-.1-.2-.2-.2-.3-.2-.3-.6-.6-1-.8-.4-.2-.9-.4-1.3-.4-.5-.1-1.1-.1-1.6.1-.6.1-1.1.2-1.6.5l-.9.5c-.5.4-.9.8-1.2 1.4-.1.3-.2.5-.2.8-.1.5.1 1.1.4 1.5.4.5.9.9 1.4 1.3l1.2.6c.2.1.4.2.5.2.6.2 1.3.4 2 .4h1.6c.5-.1 1.1-.2 1.6-.3.5-.1 1-.3 1.5-.7.4-.2.8-.5 1.1-.9.3-.3.5-.7.6-1.1.2-.4.2-.8.1-1.2l-.3-.7c-.4-.4-.8-.8-1.4-1-1.1-.2-2.1-.2-3.1 0M552.7 18.1c1.2-1.8 2.5-3.6 3.9-5.2l-.3.4c.6-.6 1.2-1.3 1.8-1.9.3-.3.6-.7.2-1-.3-.1-.5-.2-.8-.2-.4-.1-.8 0-1.2 0-1.1.1-2.1.4-3.1.7-.8.2-1.6.6-2.3 1.2-2.3 2.3-4.3 4.8-6 7.5-.3.5.3.7.6.8.9.1 1.7.1 2.6-.1 1.1-.2 2.1-.5 3.1-.9.5-.3 1.1-.7 1.5-1.3"/></svg>