<svg xmlns="http://www.w3.org/2000/svg" width="22" height="18" viewBox="0 0 22 18"><path data-name="Page 1" d="M6.919 18A12.8 12.8 0 0019.761 5.068c0-.2 0-.393-.013-.587A9.219 9.219 0 0022 2.128a8.962 8.962 0 01-2.592.715A4.555 4.555 0 0021.392.329a9.007 9.007 0 01-2.866 1.1 4.5 4.5 0 00-6.386-.2 4.569 4.569 0 00-1.306 4.343A12.785 12.785 0 011.531.829 4.567 4.567 0 002.929 6.9 4.457 4.457 0 01.88 6.327v.058A4.539 4.539 0 004.5 10.84a4.477 4.477 0 01-2.038.078 4.523 4.523 0 004.218 3.157 9.018 9.018 0 01-5.606 1.949A9.13 9.13 0 010 15.958 12.714 12.714 0 006.919 18" fill="#1da1f2"/></svg>