<svg xmlns="http://www.w3.org/2000/svg" width="24.387" height="22.96" viewBox="0 0 24.387 22.96"><g fill="none" stroke="#000" stroke-linecap="round" stroke-linejoin="round" stroke-miterlimit="10" stroke-width="1.778"><path data-name="Stroke 1" d="M13.691 10.077l-8.879 8.32"/><path data-name="Stroke 2" d="M14.734 2.916h0a26.306 26.306 0 016.6 6.184"/><path data-name="Stroke 4" d="M17.193 14.138l-.035 3.68a1.08 1.08 0 01-.348.775l-3.53 3.31a.6.6 0 01-.98-.261l-1.042-4.13"/><path data-name="Stroke 6" d="M22.663 6.435l.791-3.563A1.7 1.7 0 0021.381.931l-3.8.741a12.16 12.16 0 00-5.988 3.029l-2.93 2.744a9.809 9.809 0 00-3.019 5.637l-.044.285a3.154 3.154 0 00.988 2.794l.612.573a3.646 3.646 0 002.982.925l.3-.041a10.987 10.987 0 006.016-2.831l2.927-2.742a10.953 10.953 0 003.238-5.61z"/><path data-name="Stroke 8" d="M9.357 6.796l-3.925.032a1.221 1.221 0 00-.832.325l-3.529 3.31a.536.536 0 00.279.918l4.407.976"/></g></svg>