<svg xmlns="http://www.w3.org/2000/svg" width="23.743" height="23.286" viewBox="0 0 23.743 23.286"><g fill="none" stroke="#000" stroke-linecap="round" stroke-linejoin="round" stroke-miterlimit="10" stroke-width="1.778"><path data-name="Stroke 1" d="M21.35 12.383a10.123 10.123 0 01-10.23 10.013A10.124 10.124 0 01.889 12.383 10.124 10.124 0 0111.12 2.37"/><path data-name="Stroke 3" d="M16.803 12.384a5.625 5.625 0 01-5.684 5.563 5.624 5.624 0 01-5.683-5.563 5.623 5.623 0 015.684-5.562"/><path data-name="Stroke 5" d="M19.077 1.257l-3.41 3.338v3.339"/><path data-name="Stroke 7" d="M22.486 4.595l-3.41 3.339h-3.41"/><path data-name="Stroke 9" d="M20.213 3.483l-1.136-2.226"/><path data-name="Stroke 11" d="M20.213 3.482l2.274 1.112"/><path data-name="Stroke 13" d="M15.667 7.934l-4.547 4.45"/></g></svg>